<svg id="visual" viewBox="0 0 1024 250" width="1024" height="250" xmlns="http://www.w3.org/2000/svg" xmlns:xlink="http://www.w3.org/1999/xlink" version="1.1"><path d="M0 76L15.5 77.7C31 79.3 62 82.7 93 86.8C124 91 155 96 186 99.8C217 103.7 248 106.3 279 98C310 89.7 341 70.3 372 62C403 53.7 434 56.3 465.2 59.7C496.3 63 527.7 67 558.8 69.5C590 72 621 73 652 79.3C683 85.7 714 97.3 745 91.5C776 85.7 807 62.3 838 52.7C869 43 900 47 931 51.5C962 56 993 61 1008.5 63.5L1024 66L1024 0L1008.5 0C993 0 962 0 931 0C900 0 869 0 838 0C807 0 776 0 745 0C714 0 683 0 652 0C621 0 590 0 558.8 0C527.7 0 496.3 0 465.2 0C434 0 403 0 372 0C341 0 310 0 279 0C248 0 217 0 186 0C155 0 124 0 93 0C62 0 31 0 15.5 0L0 0Z" fill="#0066ff"></path><path d="M0 106L15.5 111C31 116 62 126 93 129.3C124 132.7 155 129.3 186 129C217 128.7 248 131.3 279 122.7C310 114 341 94 372 86.5C403 79 434 84 465.2 87.7C496.3 91.3 527.7 93.7 558.8 94.8C590 96 621 96 652 101.8C683 107.7 714 119.3 745 116C776 112.7 807 94.3 838 84.3C869 74.3 900 72.7 931 76.8C962 81 993 91 1008.5 96L1024 101L1024 64L1008.5 61.5C993 59 962 54 931 49.5C900 45 869 41 838 50.7C807 60.3 776 83.7 745 89.5C714 95.3 683 83.7 652 77.3C621 71 590 70 558.8 67.5C527.7 65 496.3 61 465.2 57.7C434 54.3 403 51.7 372 60C341 68.3 310 87.7 279 96C248 104.3 217 101.7 186 97.8C155 94 124 89 93 84.8C62 80.7 31 77.3 15.5 75.7L0 74Z" fill="#0b53e4"></path><path d="M0 134L15.5 138.2C31 142.3 62 150.7 93 153.2C124 155.7 155 152.3 186 151C217 149.7 248 150.3 279 142.3C310 134.3 341 117.7 372 112.7C403 107.7 434 114.3 465.2 117.3C496.3 120.3 527.7 119.7 558.8 122.7C590 125.7 621 132.3 652 137.3C683 142.3 714 145.7 745 142.3C776 139 807 129 838 122.7C869 116.3 900 113.7 931 116.5C962 119.3 993 127.7 1008.5 131.8L1024 136L1024 99L1008.5 94C993 89 962 79 931 74.8C900 70.7 869 72.3 838 82.3C807 92.3 776 110.7 745 114C714 117.3 683 105.7 652 99.8C621 94 590 94 558.8 92.8C527.7 91.7 496.3 89.3 465.2 85.7C434 82 403 77 372 84.5C341 92 310 112 279 120.7C248 129.3 217 126.7 186 127C155 127.3 124 130.7 93 127.3C62 124 31 114 15.5 109L0 104Z" fill="#0c40ca"></path><path d="M0 184L15.5 185.2C31 186.3 62 188.7 93 193.7C124 198.7 155 206.3 186 210.2C217 214 248 214 279 204C310 194 341 174 372 163.5C403 153 434 152 465.2 153.7C496.3 155.3 527.7 159.7 558.8 168.5C590 177.3 621 190.7 652 193.2C683 195.7 714 187.3 745 182.7C776 178 807 177 838 176.2C869 175.3 900 174.7 931 171.8C962 169 993 164 1008.5 161.5L1024 159L1024 134L1008.5 129.8C993 125.7 962 117.3 931 114.5C900 111.7 869 114.3 838 120.7C807 127 776 137 745 140.3C714 143.7 683 140.3 652 135.3C621 130.3 590 123.7 558.8 120.7C527.7 117.7 496.3 118.3 465.2 115.3C434 112.3 403 105.7 372 110.7C341 115.7 310 132.3 279 140.3C248 148.3 217 147.7 186 149C155 150.3 124 153.7 93 151.2C62 148.7 31 140.3 15.5 136.2L0 132Z" fill="#082eb1"></path><path d="M0 251L15.5 251C31 251 62 251 93 251C124 251 155 251 186 251C217 251 248 251 279 251C310 251 341 251 372 251C403 251 434 251 465.2 251C496.3 251 527.7 251 558.8 251C590 251 621 251 652 251C683 251 714 251 745 251C776 251 807 251 838 251C869 251 900 251 931 251C962 251 993 251 1008.5 251L1024 251L1024 157L1008.5 159.5C993 162 962 167 931 169.8C900 172.7 869 173.3 838 174.2C807 175 776 176 745 180.7C714 185.3 683 193.7 652 191.2C621 188.7 590 175.3 558.8 166.5C527.7 157.7 496.3 153.3 465.2 151.7C434 150 403 151 372 161.5C341 172 310 192 279 202C248 212 217 212 186 208.2C155 204.3 124 196.7 93 191.7C62 186.7 31 184.3 15.5 183.2L0 182Z" fill="#001b98"></path></svg>