<svg id="visual" viewBox="0 0 1024 250" width="1024" height="250" xmlns="http://www.w3.org/2000/svg" xmlns:xlink="http://www.w3.org/1999/xlink" version="1.1"><path d="M0 24L15.5 27.7C31 31.3 62 38.7 93 39.8C124 41 155 36 186 34.3C217 32.7 248 34.3 279 40.7C310 47 341 58 372 57.2C403 56.3 434 43.7 465.2 36.2C496.3 28.7 527.7 26.3 558.8 26C590 25.7 621 27.3 652 33.5C683 39.7 714 50.3 745 49.5C776 48.7 807 36.3 838 30.2C869 24 900 24 931 24.3C962 24.7 993 25.3 1008.5 25.7L1024 26L1024 0L1008.5 0C993 0 962 0 931 0C900 0 869 0 838 0C807 0 776 0 745 0C714 0 683 0 652 0C621 0 590 0 558.8 0C527.7 0 496.3 0 465.2 0C434 0 403 0 372 0C341 0 310 0 279 0C248 0 217 0 186 0C155 0 124 0 93 0C62 0 31 0 15.5 0L0 0Z" fill="#001b98"></path><path d="M0 106L15.5 106C31 106 62 106 93 107.3C124 108.7 155 111.3 186 115.2C217 119 248 124 279 129.3C310 134.7 341 140.3 372 130.3C403 120.3 434 94.7 465.2 83.5C496.3 72.3 527.7 75.7 558.8 89.8C590 104 621 129 652 134.3C683 139.7 714 125.3 745 114C776 102.7 807 94.3 838 89C869 83.7 900 81.3 931 83.5C962 85.7 993 92.3 1008.5 95.7L1024 99L1024 24L1008.5 23.7C993 23.3 962 22.7 931 22.3C900 22 869 22 838 28.2C807 34.3 776 46.7 745 47.5C714 48.3 683 37.7 652 31.5C621 25.3 590 23.7 558.8 24C527.7 24.3 496.3 26.7 465.2 34.2C434 41.7 403 54.3 372 55.2C341 56 310 45 279 38.7C248 32.3 217 30.7 186 32.3C155 34 124 39 93 37.8C62 36.7 31 29.3 15.5 25.7L0 22Z" fill="#082eb1"></path><path d="M0 146L15.5 144C31 142 62 138 93 139.3C124 140.7 155 147.3 186 152.3C217 157.3 248 160.7 279 165.7C310 170.7 341 177.3 372 167.3C403 157.3 434 130.7 465.2 119.8C496.3 109 527.7 114 558.8 127.3C590 140.7 621 162.3 652 167.7C683 173 714 162 745 153.7C776 145.3 807 139.7 838 133C869 126.3 900 118.7 931 122C962 125.3 993 139.7 1008.5 146.8L1024 154L1024 97L1008.5 93.7C993 90.3 962 83.7 931 81.5C900 79.3 869 81.7 838 87C807 92.3 776 100.7 745 112C714 123.3 683 137.7 652 132.3C621 127 590 102 558.8 87.8C527.7 73.7 496.3 70.3 465.2 81.5C434 92.7 403 118.3 372 128.3C341 138.3 310 132.7 279 127.3C248 122 217 117 186 113.2C155 109.3 124 106.7 93 105.3C62 104 31 104 15.5 104L0 104Z" fill="#0c40ca"></path><path d="M0 171L15.5 171C31 171 62 171 93 171C124 171 155 171 186 175.2C217 179.3 248 187.7 279 192.3C310 197 341 198 372 188.5C403 179 434 159 465.2 150.2C496.3 141.3 527.7 143.7 558.8 154C590 164.3 621 182.7 652 190.2C683 197.7 714 194.3 745 186.5C776 178.7 807 166.3 838 159.7C869 153 900 152 931 154.8C962 157.7 993 164.3 1008.5 167.7L1024 171L1024 152L1008.5 144.8C993 137.7 962 123.3 931 120C900 116.7 869 124.3 838 131C807 137.7 776 143.3 745 151.7C714 160 683 171 652 165.7C621 160.3 590 138.7 558.8 125.3C527.7 112 496.3 107 465.2 117.8C434 128.7 403 155.3 372 165.3C341 175.3 310 168.7 279 163.7C248 158.7 217 155.3 186 150.3C155 145.3 124 138.7 93 137.3C62 136 31 140 15.5 142L0 144Z" fill="#0b53e4"></path><path d="M0 251L15.5 251C31 251 62 251 93 251C124 251 155 251 186 251C217 251 248 251 279 251C310 251 341 251 372 251C403 251 434 251 465.2 251C496.3 251 527.7 251 558.8 251C590 251 621 251 652 251C683 251 714 251 745 251C776 251 807 251 838 251C869 251 900 251 931 251C962 251 993 251 1008.5 251L1024 251L1024 169L1008.5 165.7C993 162.3 962 155.7 931 152.8C900 150 869 151 838 157.7C807 164.3 776 176.7 745 184.5C714 192.3 683 195.7 652 188.2C621 180.7 590 162.3 558.8 152C527.7 141.7 496.3 139.3 465.2 148.2C434 157 403 177 372 186.5C341 196 310 195 279 190.3C248 185.7 217 177.3 186 173.2C155 169 124 169 93 169C62 169 31 169 15.5 169L0 169Z" fill="#0066ff"></path></svg>